<svg width="15" height="15" viewBox="0 0 15 15" fill="none" xmlns="http://www.w3.org/2000/svg">
<path d="M7.61857 0.594971C3.93657 0.594971 0.951904 3.57964 0.951904 7.26164C0.951904 10.9436 3.93657 13.9283 7.61857 13.9283C11.3006 13.9283 14.2852 10.9436 14.2852 7.26164C14.2852 3.57964 11.3006 0.594971 7.61857 0.594971ZM7.61857 10.595C7.25057 10.595 6.9519 10.2963 6.9519 9.9283V7.26164C6.9519 6.89364 7.25057 6.59497 7.61857 6.59497C7.98657 6.59497 8.28524 6.89364 8.28524 7.26164V9.9283C8.28524 10.2963 7.98657 10.595 7.61857 10.595ZM7.9519 5.26164H7.28524C7.10124 5.26164 6.9519 5.1123 6.9519 4.9283V4.26164C6.9519 4.07764 7.10124 3.9283 7.28524 3.9283H7.9519C8.1359 3.9283 8.28524 4.07764 8.28524 4.26164V4.9283C8.28524 5.1123 8.1359 5.26164 7.9519 5.26164Z" fill="#C42137"/>
</svg>
