<svg width="15" height="15" viewBox="0 0 15 15" fill="none" xmlns="http://www.w3.org/2000/svg">
<path d="M7.20618 0.594971C3.52418 0.594971 0.53951 3.57964 0.53951 7.26164C0.53951 10.9436 3.52418 13.9283 7.20618 13.9283C10.8882 13.9283 13.8728 10.9436 13.8728 7.26164C13.8728 3.57964 10.8882 0.594971 7.20618 0.594971ZM7.20618 10.595C6.83818 10.595 6.53951 10.2963 6.53951 9.9283V7.26164C6.53951 6.89364 6.83818 6.59497 7.20618 6.59497C7.57418 6.59497 7.87284 6.89364 7.87284 7.26164V9.9283C7.87284 10.2963 7.57418 10.595 7.20618 10.595ZM7.53951 5.26164H6.87284C6.68884 5.26164 6.53951 5.1123 6.53951 4.9283V4.26164C6.53951 4.07764 6.68884 3.9283 6.87284 3.9283H7.53951C7.72351 3.9283 7.87284 4.07764 7.87284 4.26164V4.9283C7.87284 5.1123 7.72351 5.26164 7.53951 5.26164Z" fill="#B1BDE7"/>
</svg>
