<?xml version="1.0" encoding="UTF-8"?>
<svg id="Layer_1" data-name="Layer 1" xmlns="http://www.w3.org/2000/svg" viewBox="0 0 106.98 20.85">
  <defs>
    <style>
      .cls-1 {
        fill: #f9ab80;
      }

      .cls-2 {
        fill: #00afa9;
      }

      .cls-3 {
        fill: #9b6fa9;
      }
    </style>
  </defs>
  <path class="cls-2" d="M22.73,6.75c-.03-.48-.43-.86-.92-.86s-.92,.41-.92,.92v4.54c0,1.13-.92,2.05-2.05,2.05s-2.05-.92-2.05-2.05V6.81c0-.51-.41-.92-.92-.92s-.92,.41-.92,.92v4.54c0,2.14,1.75,3.89,3.89,3.89,.76,0,1.47-.22,2.07-.6v.32c0,.62-.2,1.15-.63,1.63-.44,.5-1.11,.94-1.99,1.3-1.77,.73-4.31,1.11-7.34,1.11-4.01,0-7.16-.61-9.61-1.87-.45-.23-1-.05-1.23,.4-.23,.45-.05,1,.4,1.24,2.72,1.39,6.13,2.07,10.45,2.07,3.26,0,6.04-.43,8.04-1.25,3.01-1.24,3.71-3.11,3.75-4.5V6.75Z"/>
  <path class="cls-2" d="M21.43,2.59c0,1.43-1.16,2.59-2.59,2.59s-2.59-1.16-2.59-2.59,1.16-2.59,2.59-2.59,2.59,1.16,2.59,2.59"/>
  <path class="cls-1" d="M.92,15.25c.51,0,.92-.41,.92-.92v-4.54c0-1.13,.92-2.05,2.05-2.05s2.05,.92,2.05,2.05v4.54c0,.51,.41,.92,.92,.92h0c.51,0,.92-.41,.92-.92v-4.54c0-1.13,.92-2.05,2.05-2.05s2.05,.92,2.05,2.05v4.54c0,.51,.41,.92,.92,.92s.92-.41,.92-.92v-4.54c0-2.14-1.74-3.89-3.89-3.89-1.19,0-2.26,.54-2.97,1.38-.71-.85-1.78-1.38-2.97-1.38-2.14,0-3.89,1.74-3.89,3.89v4.54c0,.51,.41,.92,.92,.92M6.49,2.59c0,1.43-1.16,2.59-2.59,2.59S1.3,4.03,1.3,2.59,2.46,0,3.89,0s2.59,1.16,2.59,2.59Zm5.94,0c0,1.43-1.16,2.59-2.59,2.59s-2.59-1.16-2.59-2.59,1.16-2.59,2.59-2.59,2.59,1.16,2.59,2.59Z"/>
  <path class="cls-3" d="M83.96,10.21l2.58,3.17c.3,.42,.62,.57,.97,.57,.68,0,1.11-.62,1.05-.71l-2.73-3.4,2.63-3.22c.05-.1-.32-.73-.99-.73-.32,0-.64,.14-.97,.59l-2.55,3.08v-2.84c0-.55-.26-.82-.78-.82h-.25c-.48,0-.75,.27-.75,.82v6.41c0,.54,.26,.83,.75,.83h.25c.52,0,.78-.28,.78-.83v-2.92Zm-5.2,.49l2.7-4.11c.06-.09-.29-.7-1.08-.7-.29,0-.59,.17-.85,.64l-1.66,2.72-1.63-2.73c-.23-.43-.53-.63-.84-.63-.88,0-1.19,.6-1.13,.7l2.72,4.11v2.42c0,.54,.26,.83,.76,.83h.24c.52,0,.78-.28,.78-.83v-2.42Zm-10.03,1.65V7.5h1.11c1.53,0,2.46,.89,2.46,2.41s-.94,2.45-2.49,2.45h-1.08Zm-.77,1.55h1.86c2.62,0,4.24-1.54,4.24-4.01s-1.57-3.95-4.19-3.95h-1.96c-.54,0-.94,.37-.94,1.01v5.96c0,.55,.43,1,.99,1Zm-7.27,0h4.4c.55,0,.82-.28,.82-.79v-.07c0-.47-.26-.71-.82-.71h-3.54v-1.73h2.55c.56,0,.82-.26,.82-.74v-.05c0-.44-.24-.7-.82-.7h-2.55v-1.57h3.48c.55,0,.82-.26,.82-.76v-.06c0-.48-.26-.76-.82-.76h-4.34c-.58,0-.92,.37-.92,1.01v5.96c0,.64,.35,1,.92,1Zm-9.35,.05h.28c.52,0,.7-.28,.7-.83v-4.68l1.3,3.16c.13,.32,.18,.57,.89,.57s.77-.26,.9-.57l1.3-3.22v4.74c0,.54,.22,.83,.7,.83h.28c.5,0,.7-.28,.7-.83V6.81c0-.59-.33-.91-.9-.91h-.47c-.49,0-.69,.15-.9,.64l-1.59,3.78-1.57-3.78c-.2-.47-.38-.64-.93-.64h-.49c-.55,0-.88,.32-.88,.91v6.32c0,.54,.2,.83,.7,.83Zm-6.16-3.25l2.7-4.11c.06-.09-.29-.7-1.08-.7-.29,0-.59,.17-.85,.64l-1.66,2.72-1.63-2.73c-.23-.43-.53-.63-.84-.63-.88,0-1.19,.6-1.13,.7l2.72,4.11v2.42c0,.54,.26,.83,.76,.83h.24c.52,0,.78-.28,.78-.83v-2.42Zm-12.25,3.25h.28c.52,0,.7-.28,.7-.83v-4.68l1.3,3.16c.13,.32,.18,.57,.89,.57s.77-.26,.9-.57l1.3-3.22v4.74c0,.54,.22,.83,.7,.83h.28c.5,0,.7-.28,.7-.83V6.81c0-.59-.32-.91-.9-.91h-.47c-.49,0-.68,.15-.9,.64l-1.59,3.78-1.57-3.78c-.2-.47-.38-.64-.93-.64h-.49c-.55,0-.88,.32-.88,.91v6.32c0,.54,.2,.83,.7,.83Z"/>
  <path class="cls-3" d="M104.4,20.77h2.39c.12,0,.19-.06,.19-.18v-.04c0-.11-.07-.16-.19-.16h-2.21v-1.46h1.74c.12,0,.19-.05,.19-.17v-.02c0-.11-.07-.17-.19-.17h-1.74v-1.36h2.17c.12,0,.19-.05,.19-.17v-.04c0-.11-.07-.17-.19-.17h-2.36c-.13,0-.23,.1-.23,.23v3.48c0,.13,.1,.23,.23,.23m-2.25-1.66c.84-.02,1.3-.43,1.3-1.14,0-.76-.5-1.14-1.42-1.14h-1.08c-.13,0-.23,.1-.23,.23v3.55c0,.13,.06,.19,.18,.19h.05c.12,0,.18-.08,.18-.19v-1.49h.49l1.28,1.54c.09,.11,.18,.15,.26,.15,.17,0,.27-.16,.25-.19l-1.25-1.49Zm-1.02-.35v-1.56h.92c.65,0,.98,.27,.98,.78,0,.47-.3,.78-.96,.78h-.94Zm-2.86-1.55v3.4c0,.13,.06,.19,.18,.19h.05c.12,0,.18-.06,.18-.19v-3.4h1.24c.12,0,.19-.06,.19-.17v-.03c0-.12-.07-.18-.19-.18h-2.89c-.12,0-.19,.06-.19,.18v.03c0,.11,.07,.17,.19,.17h1.24Zm-5.05,3.59h.06c.12,0,.17-.06,.17-.19v-3.25l2.27,3.28c.08,.11,.12,.16,.27,.16h.03c.13,0,.21-.12,.21-.28v-3.52c0-.13-.05-.19-.17-.19h-.05c-.12,0-.17,.06-.17,.19v3.13l-2.14-3.1c-.1-.14-.16-.22-.32-.22h-.1c-.15,0-.22,.13-.22,.28v3.52c0,.13,.05,.19,.16,.19Zm-3.44-.02h2.39c.12,0,.19-.06,.19-.18v-.04c0-.11-.07-.16-.19-.16h-2.21v-1.46h1.74c.12,0,.19-.05,.19-.17v-.02c0-.11-.07-.17-.19-.17h-1.74v-1.36h2.17c.12,0,.19-.05,.19-.17v-.04c0-.11-.07-.17-.19-.17h-2.36c-.13,0-.23,.1-.23,.23v3.48c0,.13,.1,.23,.23,.23Zm-2.46,.07c1.02,0,1.56-.63,1.56-.89,0-.21-.26-.27-.27-.24-.18,.48-.69,.77-1.27,.77-.9,0-1.55-.71-1.55-1.69s.63-1.68,1.53-1.68c.48,0,.99,.24,1.24,.67,.01,.02,.24-.04,.24-.25,0-.23-.52-.78-1.47-.78-1.16,0-1.97,.85-1.97,2.05s.8,2.03,1.96,2.03Zm-5.76-.07h2.08c.12,0,.19-.07,.19-.18v-.03c0-.12-.07-.18-.19-.18h-1.9v-3.39c0-.13-.06-.19-.18-.19h-.05c-.12,0-.18,.06-.18,.19v3.54c0,.13,.1,.23,.23,.23Zm-1.72-1.29l.43,1.12c.05,.15,.15,.19,.25,.19,.13,0,.25-.09,.24-.12l-1.44-3.73c-.04-.1-.12-.15-.31-.15s-.27,.05-.31,.15l-1.44,3.73s.11,.12,.23,.12c.09,0,.18-.04,.24-.19l.43-1.12h1.7Zm-1.56-.37l.71-1.86,.71,1.86h-1.42Zm-2.89,1.72c1.02,0,1.56-.63,1.56-.89,0-.21-.26-.27-.27-.24-.18,.48-.69,.77-1.27,.77-.89,0-1.55-.71-1.55-1.69s.63-1.68,1.54-1.68c.47,0,.99,.24,1.24,.67,.01,.02,.24-.04,.24-.25,0-.23-.52-.78-1.47-.78-1.16,0-1.97,.85-1.97,2.05s.8,2.03,1.95,2.03Zm-3.03-.05h.05c.12,0,.18-.06,.18-.19v-3.61c0-.12-.06-.19-.18-.19h-.05c-.12,0-.18,.07-.18,.19v3.61c0,.13,.06,.19,.18,.19Zm-3.92-.39v-3.21h.75c1.08,0,1.73,.6,1.73,1.61s-.63,1.6-1.74,1.6h-.74Zm-.18,.37h.9c1.37,0,2.19-.74,2.19-1.98s-.8-1.96-2.16-1.96h-.93c-.13,0-.23,.1-.23,.23v3.48c0,.13,.1,.23,.23,.23Zm-3.51,0h2.39c.12,0,.19-.06,.19-.18v-.04c0-.11-.07-.16-.19-.16h-2.21v-1.46h1.74c.12,0,.19-.05,.19-.17v-.02c0-.11-.07-.17-.19-.17h-1.74v-1.36h2.17c.12,0,.19-.05,.19-.17v-.04c0-.11-.07-.17-.19-.17h-2.36c-.13,0-.23,.1-.23,.23v3.48c0,.13,.1,.23,.23,.23Zm-4.58,.02h.06c.12,0,.17-.06,.17-.19v-3.33l1.03,2.25c.07,.16,.15,.26,.36,.26s.29-.1,.36-.26l1.04-2.25v3.33c0,.13,.05,.19,.17,.19h.05c.12,0,.18-.06,.18-.19v-3.54c0-.15-.12-.26-.3-.26h-.09c-.21,0-.27,.1-.36,.31l-1.04,2.3-1.04-2.3c-.09-.21-.15-.31-.36-.31h-.1c-.18,0-.3,.11-.3,.26v3.54c0,.13,.05,.19,.16,.19Zm-3.8-2.16c.63-.18,.96-.51,.96-.98,0-.51-.41-.9-.96-.9-.59,0-1,.43-1,.94,0,.34,.16,.6,.35,.82-.64,.18-1.04,.55-1.04,1.15,0,.75,.57,1.18,1.38,1.18,.55,0,1.03-.26,1.42-.69l.54,.51c.13,.12,.22,.13,.3,.13,.2,0,.24-.15,.23-.17l-.85-.78c.24-.37,.42-.82,.52-1.33,0-.02-.05-.12-.18-.12s-.22,.07-.27,.29c-.07,.33-.18,.64-.34,.92l-1.05-.97Zm.85,1.28c-.29,.35-.67,.58-1.14,.58-.57,0-.97-.31-.97-.85,0-.5,.35-.75,.84-.9l1.27,1.17Zm-1.1-1.51c-.22-.22-.35-.43-.35-.71,0-.32,.21-.59,.6-.59,.34,0,.58,.24,.58,.56,0,.37-.26,.59-.83,.74Zm-5.08,2.37h2.08c.12,0,.19-.07,.19-.18v-.03c0-.12-.07-.18-.19-.18h-1.9v-3.39c0-.13-.06-.19-.18-.19h-.05c-.12,0-.18,.06-.18,.19v3.54c0,.13,.1,.23,.23,.23Zm-1.72-1.29l.43,1.12c.05,.15,.15,.19,.25,.19,.13,0,.25-.09,.24-.12l-1.44-3.73c-.04-.1-.12-.15-.31-.15s-.27,.05-.31,.15l-1.44,3.73s.11,.12,.23,.12c.09,0,.18-.04,.24-.19l.43-1.12h1.7Zm-1.56-.37l.71-1.86,.71,1.86h-1.42Zm-2.69-1.91v3.4c0,.13,.06,.19,.18,.19h.06c.12,0,.18-.06,.18-.19v-3.4h1.24c.12,0,.19-.06,.19-.17v-.03c0-.12-.07-.18-.19-.18h-2.89c-.12,0-.19,.06-.19,.18v.03c0,.11,.07,.17,.19,.17h1.24Zm-5.05,3.59h.05c.12,0,.17-.06,.17-.19v-3.25l2.27,3.28c.08,.11,.12,.16,.27,.16h.03c.13,0,.21-.12,.21-.28v-3.52c0-.13-.05-.19-.16-.19h-.06c-.12,0-.17,.06-.17,.19v3.13l-2.14-3.1c-.1-.14-.16-.22-.32-.22h-.1c-.15,0-.23,.13-.23,.28v3.52c0,.13,.05,.19,.17,.19Zm-3.44-.02h2.39c.12,0,.19-.06,.19-.18v-.04c0-.11-.07-.16-.19-.16h-2.21v-1.46h1.74c.12,0,.19-.05,.19-.17v-.02c0-.11-.07-.17-.19-.17h-1.74v-1.36h2.17c.12,0,.19-.05,.19-.17v-.04c0-.11-.07-.17-.19-.17h-2.36c-.13,0-.23,.1-.23,.23v3.48c0,.13,.1,.23,.23,.23Zm-3.91-.37v-3.21h.75c1.08,0,1.73,.6,1.73,1.61s-.63,1.6-1.74,1.6h-.74Zm-.18,.37h.9c1.37,0,2.19-.74,2.19-1.98s-.8-1.96-2.16-1.96h-.93c-.13,0-.23,.1-.23,.23v3.48c0,.13,.1,.23,.23,.23Z"/>
</svg>