<svg width="15" height="15" viewBox="0 0 15 15" fill="none" xmlns="http://www.w3.org/2000/svg">
<path d="M7.42324 9.73297C7.29324 9.86297 7.12257 9.9283 6.9519 9.9283C6.78124 9.9283 6.61057 9.86297 6.48057 9.73297L3.8139 7.0663C3.55324 6.80564 3.55324 6.3843 3.8139 6.12364C4.07457 5.86297 4.4959 5.86297 4.75657 6.12364L6.9519 8.31897L12.5186 2.7523C11.3006 1.42897 9.55924 0.594971 7.61857 0.594971C3.93657 0.594971 0.951904 3.57964 0.951904 7.26164C0.951904 10.9436 3.93657 13.9283 7.61857 13.9283C11.3006 13.9283 14.2852 10.9436 14.2852 7.26164C14.2852 6.00497 13.9312 4.83364 13.3266 3.82964L7.42324 9.73297Z" fill="#009577"/>
</svg>
