<svg height="512" viewBox="0 0 32 32" width="512" xmlns="http://www.w3.org/2000/svg"><g id="Flat"><g><path d="m3.193 12.814.754 2.434h2.439l-1.973 1.504.754 2.434-1.974-1.505-1.973 1.505.754-2.434-1.974-1.504h2.439z" fill="#32bea6"/></g><g><path d="m9.597 12.814.753 2.434h2.44l-1.974 1.504.754 2.434-1.973-1.505-1.974 1.505.754-2.434-1.974-1.504h2.44z" fill="#32bea6"/></g><g><path d="m16 12.814.754 2.434h2.439l-1.973 1.504.754 2.434-1.974-1.505-1.974 1.505.754-2.434-1.973-1.504h2.439z" fill="#32bea6"/></g><g><path d="m22.403 12.814.754 2.434h2.44l-1.974 1.504.754 2.434-1.974-1.505-1.973 1.505.754-2.434-1.974-1.504h2.44z" fill="#32bea6"/></g><g><path d="m28.807 12.814.754 2.434h2.439l-1.974 1.504.754 2.434-1.973-1.505-1.974 1.505.754-2.434-1.973-1.504h2.439z" fill="#32bea6"/></g></g></svg>